PERFORMER "Funkagenda"
TITLE "Essential Mix (2009-01-10) [TMB]"
FILE "Essential Mix 2009-01-10 - Funagenda.mp3" MP3
  TRACK 01 AUDIO
    PERFORMER "Essential Mix"
    TITLE "Intro"
    INDEX 01 00:00:00
  TRACK 02 AUDIO
    PERFORMER "Funkagenda"
    TITLE "Intro (Essential Mix Special)"
    INDEX 01 01:52:52
  TRACK 03 AUDIO
    PERFORMER "Huggy & Dean Newton"
    TITLE "Belkiss"
    INDEX 01 03:23:74
  TRACK 04 AUDIO
    PERFORMER "Tierra Del Fuego"
    TITLE "Scsi 9 (Pascal Feos Remix)"
    INDEX 01 08:36:29
  TRACK 05 AUDIO
    PERFORMER "Spen & Karizma"
    TITLE "4 Tha Love (Accapella Edit)"
    INDEX 01 12:47:65
  TRACK 06 AUDIO
    PERFORMER "Gorge"
    TITLE "Kassiande (Marc Romboy Remix)"
    INDEX 01 14:44:72
  TRACK 07 AUDIO
    PERFORMER "Funkagenda"
    TITLE "Do Geese See God?"
    INDEX 01 18:02:74
  TRACK 08 AUDIO
    PERFORMER "Sebastién Léger"
    TITLE "Marina"
    INDEX 01 23:22:56
  TRACK 09 AUDIO
    PERFORMER "Funkagenda"
    TITLE "Breakwater"
    INDEX 01 28:39:01
  TRACK 10 AUDIO
    PERFORMER "Men With Sticks"
    TITLE "3rd Eye (Dillons Mash Up Edit)"
    INDEX 01 35:32:35
  TRACK 11 AUDIO
    PERFORMER "Mephisto"
    TITLE "Beat Of The Bee (Adam Shaw Mix With Strings)"
    INDEX 01 38:08:65
  TRACK 12 AUDIO
    PERFORMER "Funkagenda"
    TITLE "What The Fuck? (Funks Clean Radio Tool)"
    INDEX 01 42:46:44
  TRACK 13 AUDIO
    PERFORMER "The Hamptons"
    TITLE "Simple (Kammishake Remix)"
    INDEX 01 46:35:24
  TRACK 14 AUDIO
    PERFORMER "Mark Knight & D Ramirez"
    TITLE "Downpipe"
    INDEX 01 48:21:74
  TRACK 15 AUDIO
    PERFORMER "Adam Shaw"
    TITLE "Far Cry (Edit)"
    INDEX 01 54:42:74
  TRACK 16 AUDIO
    PERFORMER "iiO"
    TITLE "Rapture (Accapella)"
    INDEX 01 55:43:74
  TRACK 17 AUDIO
    PERFORMER "Andy Chatterly"
    TITLE "Access The Future"
    INDEX 01 59:09:41
  TRACK 18 AUDIO
    PERFORMER "X-Press 2"
    TITLE "AC/DC (Funkagenda Accapella Edit)"
    INDEX 01 65:15:09
  TRACK 19 AUDIO
    PERFORMER "Andy Daniel & Sandy Rivera"
    TITLE "Whatever (Evans & Waterfall Remix)"
    INDEX 01 66:31:23
  TRACK 20 AUDIO
    PERFORMER "Miss Melody & Abel Ramos"
    TITLE "Rotterdam City Of Love (Axwell Re-Edit)"
    INDEX 01 69:41:74
  TRACK 21 AUDIO
    PERFORMER "Lexicon Avenue"
    TITLE "Get On It"
    INDEX 01 75:17:30
  TRACK 22 AUDIO
    PERFORMER "Kim Fai"
    TITLE "P.O.V (Steve Angello Remix)"
    INDEX 01 80:06:74
  TRACK 23 AUDIO
    PERFORMER "Funkagenda & Exacta"
    TITLE "Mad Money"
    INDEX 01 85:15:35
  TRACK 24 AUDIO
    PERFORMER "Dirty South"
    TITLE "Alamo"
    INDEX 01 90:54:43
  TRACK 25 AUDIO
    PERFORMER "Mark Knight & Funkagenda"
    TITLE "Man With The Red Face (Funkagenda's Saxy Padapella)"
    INDEX 01 97:45:74
  TRACK 26 AUDIO
    PERFORMER "Paul Thomas & Kalva"
    TITLE "Rizer"
    INDEX 01 99:17:12
  TRACK 27 AUDIO
    PERFORMER "Leftfield"
    TITLE "Phat Planet (Mark Knight & Funkagenda Remix)"
    INDEX 01 104:22:00
  TRACK 28 AUDIO
    PERFORMER "Radiohead"
    TITLE "Street Spirit (Funkagenda Remix)"
    INDEX 01 111:55:35